<mxfile host="app.diagrams.net" modified="2024-01-17T16:37:18.817Z" agent="Mozilla/5.0 (Windows NT 10.0; Win64; x64) AppleWebKit/537.36 (KHTML, like Gecko) Chrome/120.0.0.0 Safari/537.36" etag="mm7j23_3HyctmNzC5crZ" version="22.1.19" type="device" pages="4">
  <diagram name="Moodle" id="Xx2GPtKRPrGTt_XBKnPD">
    <mxGraphModel dx="787" dy="722" grid="1" gridSize="10" guides="1" tooltips="1" connect="1" arrows="1" fold="1" page="1" pageScale="1" pageWidth="827" pageHeight="1169" math="0" shadow="0">
      <root>
        <mxCell id="0" />
        <mxCell id="1" parent="0" />
        <mxCell id="OjY1b_bEzQ7CaZI3-qbl-24" style="rounded=0;orthogonalLoop=1;jettySize=auto;html=1;entryX=0.5;entryY=1;entryDx=0;entryDy=0;endArrow=none;endFill=0;" edge="1" parent="1" source="OjY1b_bEzQ7CaZI3-qbl-1" target="OjY1b_bEzQ7CaZI3-qbl-3">
          <mxGeometry relative="1" as="geometry" />
        </mxCell>
        <mxCell id="OjY1b_bEzQ7CaZI3-qbl-25" value="" style="rounded=0;orthogonalLoop=1;jettySize=auto;html=1;endArrow=none;endFill=0;" edge="1" parent="1" source="OjY1b_bEzQ7CaZI3-qbl-1" target="OjY1b_bEzQ7CaZI3-qbl-2">
          <mxGeometry relative="1" as="geometry" />
        </mxCell>
        <mxCell id="OjY1b_bEzQ7CaZI3-qbl-40" style="rounded=0;orthogonalLoop=1;jettySize=auto;html=1;endArrow=none;endFill=0;" edge="1" parent="1" source="OjY1b_bEzQ7CaZI3-qbl-1" target="OjY1b_bEzQ7CaZI3-qbl-5">
          <mxGeometry relative="1" as="geometry" />
        </mxCell>
        <mxCell id="OjY1b_bEzQ7CaZI3-qbl-1" value="SUCURSALES" style="rounded=0;whiteSpace=wrap;html=1;" vertex="1" parent="1">
          <mxGeometry x="130" y="120" width="120" height="60" as="geometry" />
        </mxCell>
        <mxCell id="OjY1b_bEzQ7CaZI3-qbl-2" value="DOMICILIO" style="ellipse;whiteSpace=wrap;html=1;" vertex="1" parent="1">
          <mxGeometry x="270" y="40" width="120" height="80" as="geometry" />
        </mxCell>
        <mxCell id="OjY1b_bEzQ7CaZI3-qbl-3" value="TELEFONO" style="ellipse;whiteSpace=wrap;html=1;" vertex="1" parent="1">
          <mxGeometry y="40" width="120" height="80" as="geometry" />
        </mxCell>
        <mxCell id="OjY1b_bEzQ7CaZI3-qbl-23" value="" style="rounded=1;orthogonalLoop=1;jettySize=auto;html=1;endArrow=none;endFill=0;curved=0;" edge="1" parent="1" source="OjY1b_bEzQ7CaZI3-qbl-4" target="OjY1b_bEzQ7CaZI3-qbl-1">
          <mxGeometry relative="1" as="geometry" />
        </mxCell>
        <mxCell id="OjY1b_bEzQ7CaZI3-qbl-4" value="ID" style="ellipse;whiteSpace=wrap;html=1;" vertex="1" parent="1">
          <mxGeometry x="130" width="120" height="80" as="geometry" />
        </mxCell>
        <mxCell id="OjY1b_bEzQ7CaZI3-qbl-5" value="PUBLICA" style="rhombus;whiteSpace=wrap;html=1;" vertex="1" parent="1">
          <mxGeometry x="150" y="270" width="80" height="80" as="geometry" />
        </mxCell>
        <mxCell id="OjY1b_bEzQ7CaZI3-qbl-26" style="rounded=0;orthogonalLoop=1;jettySize=auto;html=1;endArrow=none;endFill=0;" edge="1" parent="1" source="OjY1b_bEzQ7CaZI3-qbl-6" target="OjY1b_bEzQ7CaZI3-qbl-7">
          <mxGeometry relative="1" as="geometry" />
        </mxCell>
        <mxCell id="OjY1b_bEzQ7CaZI3-qbl-28" style="rounded=1;orthogonalLoop=1;jettySize=auto;html=1;endArrow=none;endFill=0;curved=0;" edge="1" parent="1" source="OjY1b_bEzQ7CaZI3-qbl-6" target="OjY1b_bEzQ7CaZI3-qbl-9">
          <mxGeometry relative="1" as="geometry" />
        </mxCell>
        <mxCell id="OjY1b_bEzQ7CaZI3-qbl-6" value="EMPLEADOS" style="rounded=0;whiteSpace=wrap;html=1;" vertex="1" parent="1">
          <mxGeometry x="540" y="120" width="120" height="60" as="geometry" />
        </mxCell>
        <mxCell id="OjY1b_bEzQ7CaZI3-qbl-7" value="NOMBRE" style="ellipse;whiteSpace=wrap;html=1;" vertex="1" parent="1">
          <mxGeometry x="460" y="10" width="120" height="80" as="geometry" />
        </mxCell>
        <mxCell id="OjY1b_bEzQ7CaZI3-qbl-8" value="APELLIDO" style="ellipse;whiteSpace=wrap;html=1;" vertex="1" parent="1">
          <mxGeometry x="630" y="10" width="120" height="80" as="geometry" />
        </mxCell>
        <mxCell id="OjY1b_bEzQ7CaZI3-qbl-9" value="ID" style="ellipse;whiteSpace=wrap;html=1;" vertex="1" parent="1">
          <mxGeometry x="700" y="110" width="120" height="80" as="geometry" />
        </mxCell>
        <mxCell id="OjY1b_bEzQ7CaZI3-qbl-10" value="TELEFONO" style="ellipse;whiteSpace=wrap;html=1;" vertex="1" parent="1">
          <mxGeometry x="620" y="200" width="120" height="80" as="geometry" />
        </mxCell>
        <mxCell id="OjY1b_bEzQ7CaZI3-qbl-31" style="rounded=0;orthogonalLoop=1;jettySize=auto;html=1;entryX=0;entryY=0.5;entryDx=0;entryDy=0;endArrow=none;endFill=0;" edge="1" parent="1" source="OjY1b_bEzQ7CaZI3-qbl-11" target="OjY1b_bEzQ7CaZI3-qbl-13">
          <mxGeometry relative="1" as="geometry" />
        </mxCell>
        <mxCell id="OjY1b_bEzQ7CaZI3-qbl-32" style="rounded=0;orthogonalLoop=1;jettySize=auto;html=1;entryX=1;entryY=0.5;entryDx=0;entryDy=0;endArrow=none;endFill=0;" edge="1" parent="1" source="OjY1b_bEzQ7CaZI3-qbl-11" target="OjY1b_bEzQ7CaZI3-qbl-12">
          <mxGeometry relative="1" as="geometry" />
        </mxCell>
        <mxCell id="OjY1b_bEzQ7CaZI3-qbl-33" value="" style="rounded=1;orthogonalLoop=1;jettySize=auto;html=1;endArrow=none;endFill=0;curved=0;" edge="1" parent="1" source="OjY1b_bEzQ7CaZI3-qbl-11" target="OjY1b_bEzQ7CaZI3-qbl-14">
          <mxGeometry relative="1" as="geometry" />
        </mxCell>
        <mxCell id="OjY1b_bEzQ7CaZI3-qbl-35" style="rounded=0;orthogonalLoop=1;jettySize=auto;html=1;entryX=1;entryY=0.5;entryDx=0;entryDy=0;endArrow=none;endFill=0;" edge="1" parent="1" source="OjY1b_bEzQ7CaZI3-qbl-11" target="OjY1b_bEzQ7CaZI3-qbl-16">
          <mxGeometry relative="1" as="geometry" />
        </mxCell>
        <mxCell id="OjY1b_bEzQ7CaZI3-qbl-11" value="PERIODISTAS" style="rounded=0;whiteSpace=wrap;html=1;" vertex="1" parent="1">
          <mxGeometry x="570" y="470" width="120" height="60" as="geometry" />
        </mxCell>
        <mxCell id="OjY1b_bEzQ7CaZI3-qbl-12" value="NOMBRE" style="ellipse;whiteSpace=wrap;html=1;" vertex="1" parent="1">
          <mxGeometry x="490" y="370" width="120" height="80" as="geometry" />
        </mxCell>
        <mxCell id="OjY1b_bEzQ7CaZI3-qbl-13" value="APELLIDO" style="ellipse;whiteSpace=wrap;html=1;" vertex="1" parent="1">
          <mxGeometry x="660" y="370" width="120" height="80" as="geometry" />
        </mxCell>
        <mxCell id="OjY1b_bEzQ7CaZI3-qbl-14" value="ID" style="ellipse;whiteSpace=wrap;html=1;" vertex="1" parent="1">
          <mxGeometry x="707" y="460" width="120" height="80" as="geometry" />
        </mxCell>
        <mxCell id="OjY1b_bEzQ7CaZI3-qbl-15" value="TELEFONO" style="ellipse;whiteSpace=wrap;html=1;" vertex="1" parent="1">
          <mxGeometry x="650" y="560" width="120" height="80" as="geometry" />
        </mxCell>
        <mxCell id="OjY1b_bEzQ7CaZI3-qbl-16" value="ESPECIALIDAD" style="ellipse;whiteSpace=wrap;html=1;" vertex="1" parent="1">
          <mxGeometry x="490" y="570" width="120" height="80" as="geometry" />
        </mxCell>
        <mxCell id="OjY1b_bEzQ7CaZI3-qbl-43" style="rounded=0;orthogonalLoop=1;jettySize=auto;html=1;entryX=0;entryY=0.5;entryDx=0;entryDy=0;endArrow=none;endFill=0;" edge="1" parent="1" source="OjY1b_bEzQ7CaZI3-qbl-17" target="OjY1b_bEzQ7CaZI3-qbl-11">
          <mxGeometry relative="1" as="geometry" />
        </mxCell>
        <mxCell id="OjY1b_bEzQ7CaZI3-qbl-17" value="ESCRIBIR" style="rhombus;whiteSpace=wrap;html=1;" vertex="1" parent="1">
          <mxGeometry x="370" y="460" width="80" height="80" as="geometry" />
        </mxCell>
        <mxCell id="OjY1b_bEzQ7CaZI3-qbl-36" style="rounded=0;orthogonalLoop=1;jettySize=auto;html=1;endArrow=none;endFill=0;" edge="1" parent="1" source="OjY1b_bEzQ7CaZI3-qbl-18" target="OjY1b_bEzQ7CaZI3-qbl-19">
          <mxGeometry relative="1" as="geometry" />
        </mxCell>
        <mxCell id="OjY1b_bEzQ7CaZI3-qbl-37" style="rounded=0;orthogonalLoop=1;jettySize=auto;html=1;endArrow=none;endFill=0;" edge="1" parent="1" source="OjY1b_bEzQ7CaZI3-qbl-18" target="OjY1b_bEzQ7CaZI3-qbl-22">
          <mxGeometry relative="1" as="geometry" />
        </mxCell>
        <mxCell id="OjY1b_bEzQ7CaZI3-qbl-38" style="rounded=0;orthogonalLoop=1;jettySize=auto;html=1;endArrow=none;endFill=0;" edge="1" parent="1" source="OjY1b_bEzQ7CaZI3-qbl-18" target="OjY1b_bEzQ7CaZI3-qbl-21">
          <mxGeometry relative="1" as="geometry" />
        </mxCell>
        <mxCell id="OjY1b_bEzQ7CaZI3-qbl-39" style="rounded=1;orthogonalLoop=1;jettySize=auto;html=1;entryX=0.5;entryY=1;entryDx=0;entryDy=0;endArrow=none;endFill=0;curved=0;" edge="1" parent="1" source="OjY1b_bEzQ7CaZI3-qbl-18" target="OjY1b_bEzQ7CaZI3-qbl-20">
          <mxGeometry relative="1" as="geometry" />
        </mxCell>
        <mxCell id="OjY1b_bEzQ7CaZI3-qbl-42" style="rounded=0;orthogonalLoop=1;jettySize=auto;html=1;entryX=0;entryY=0.5;entryDx=0;entryDy=0;endArrow=none;endFill=0;" edge="1" parent="1" source="OjY1b_bEzQ7CaZI3-qbl-18" target="OjY1b_bEzQ7CaZI3-qbl-17">
          <mxGeometry relative="1" as="geometry" />
        </mxCell>
        <mxCell id="OjY1b_bEzQ7CaZI3-qbl-18" value="REVISTAS" style="rounded=0;whiteSpace=wrap;html=1;" vertex="1" parent="1">
          <mxGeometry x="150" y="480" width="120" height="60" as="geometry" />
        </mxCell>
        <mxCell id="OjY1b_bEzQ7CaZI3-qbl-19" value="TITULO" style="ellipse;whiteSpace=wrap;html=1;" vertex="1" parent="1">
          <mxGeometry x="260" y="570" width="120" height="80" as="geometry" />
        </mxCell>
        <mxCell id="OjY1b_bEzQ7CaZI3-qbl-20" value="ID" style="ellipse;whiteSpace=wrap;html=1;" vertex="1" parent="1">
          <mxGeometry x="10" y="420" width="120" height="80" as="geometry" />
        </mxCell>
        <mxCell id="OjY1b_bEzQ7CaZI3-qbl-21" value="PERIDIOCIDAD" style="ellipse;whiteSpace=wrap;html=1;" vertex="1" parent="1">
          <mxGeometry x="10" y="520" width="120" height="80" as="geometry" />
        </mxCell>
        <mxCell id="OjY1b_bEzQ7CaZI3-qbl-22" value="TIPO" style="ellipse;whiteSpace=wrap;html=1;" vertex="1" parent="1">
          <mxGeometry x="120" y="590" width="120" height="80" as="geometry" />
        </mxCell>
        <mxCell id="OjY1b_bEzQ7CaZI3-qbl-27" style="rounded=0;orthogonalLoop=1;jettySize=auto;html=1;entryX=0.417;entryY=0.975;entryDx=0;entryDy=0;entryPerimeter=0;endArrow=none;endFill=0;" edge="1" parent="1" source="OjY1b_bEzQ7CaZI3-qbl-6" target="OjY1b_bEzQ7CaZI3-qbl-8">
          <mxGeometry relative="1" as="geometry" />
        </mxCell>
        <mxCell id="OjY1b_bEzQ7CaZI3-qbl-29" style="rounded=0;orthogonalLoop=1;jettySize=auto;html=1;entryX=0.008;entryY=0.588;entryDx=0;entryDy=0;entryPerimeter=0;endArrow=none;endFill=0;" edge="1" parent="1" source="OjY1b_bEzQ7CaZI3-qbl-6" target="OjY1b_bEzQ7CaZI3-qbl-10">
          <mxGeometry relative="1" as="geometry" />
        </mxCell>
        <mxCell id="OjY1b_bEzQ7CaZI3-qbl-34" style="rounded=0;orthogonalLoop=1;jettySize=auto;html=1;entryX=-0.008;entryY=0.65;entryDx=0;entryDy=0;entryPerimeter=0;endArrow=none;endFill=0;" edge="1" parent="1" source="OjY1b_bEzQ7CaZI3-qbl-11" target="OjY1b_bEzQ7CaZI3-qbl-15">
          <mxGeometry relative="1" as="geometry" />
        </mxCell>
        <mxCell id="OjY1b_bEzQ7CaZI3-qbl-41" style="rounded=0;orthogonalLoop=1;jettySize=auto;html=1;entryX=0.35;entryY=0.033;entryDx=0;entryDy=0;entryPerimeter=0;endArrow=none;endFill=0;" edge="1" parent="1" source="OjY1b_bEzQ7CaZI3-qbl-5" target="OjY1b_bEzQ7CaZI3-qbl-18">
          <mxGeometry relative="1" as="geometry" />
        </mxCell>
        <mxCell id="OjY1b_bEzQ7CaZI3-qbl-45" style="rounded=0;orthogonalLoop=1;jettySize=auto;html=1;entryX=0;entryY=0.5;entryDx=0;entryDy=0;endArrow=none;endFill=0;" edge="1" parent="1" source="OjY1b_bEzQ7CaZI3-qbl-44" target="OjY1b_bEzQ7CaZI3-qbl-6">
          <mxGeometry relative="1" as="geometry" />
        </mxCell>
        <mxCell id="OjY1b_bEzQ7CaZI3-qbl-44" value="TRABAJA" style="rhombus;whiteSpace=wrap;html=1;" vertex="1" parent="1">
          <mxGeometry x="380" y="170" width="80" height="80" as="geometry" />
        </mxCell>
        <mxCell id="OjY1b_bEzQ7CaZI3-qbl-46" style="rounded=0;orthogonalLoop=1;jettySize=auto;html=1;entryX=0.908;entryY=1;entryDx=0;entryDy=0;entryPerimeter=0;endArrow=none;endFill=0;" edge="1" parent="1" source="OjY1b_bEzQ7CaZI3-qbl-44" target="OjY1b_bEzQ7CaZI3-qbl-1">
          <mxGeometry relative="1" as="geometry" />
        </mxCell>
        <mxCell id="OjY1b_bEzQ7CaZI3-qbl-49" value="1:N" style="text;strokeColor=none;fillColor=none;html=1;fontSize=24;fontStyle=1;verticalAlign=middle;align=center;" vertex="1" parent="1">
          <mxGeometry x="385" y="140" width="70" height="20" as="geometry" />
        </mxCell>
        <mxCell id="OjY1b_bEzQ7CaZI3-qbl-50" value="N:N" style="text;strokeColor=none;fillColor=none;html=1;fontSize=24;fontStyle=1;verticalAlign=middle;align=center;" vertex="1" parent="1">
          <mxGeometry x="35" y="310" width="70" height="20" as="geometry" />
        </mxCell>
        <mxCell id="OjY1b_bEzQ7CaZI3-qbl-51" value="N:N" style="text;strokeColor=none;fillColor=none;html=1;fontSize=24;fontStyle=1;verticalAlign=middle;align=center;" vertex="1" parent="1">
          <mxGeometry x="379" y="560" width="70" height="20" as="geometry" />
        </mxCell>
      </root>
    </mxGraphModel>
  </diagram>
  <diagram id="spTOThc-zVHa1uvNnkh1" name="Ejemplo 1">
    <mxGraphModel dx="650" dy="722" grid="1" gridSize="10" guides="1" tooltips="1" connect="1" arrows="1" fold="1" page="1" pageScale="1" pageWidth="827" pageHeight="1169" math="0" shadow="0">
      <root>
        <mxCell id="0" />
        <mxCell id="1" parent="0" />
        <mxCell id="sAWTyCXMA-xRmHa8fGBv-1" value="PERTENECE" style="shape=rhombus;perimeter=rhombusPerimeter;whiteSpace=wrap;html=1;align=center;" vertex="1" parent="1">
          <mxGeometry x="350" y="340" width="120" height="60" as="geometry" />
        </mxCell>
        <mxCell id="sAWTyCXMA-xRmHa8fGBv-9" value="" style="edgeStyle=orthogonalEdgeStyle;rounded=0;orthogonalLoop=1;jettySize=auto;html=1;startArrow=none;startFill=0;strokeColor=default;curved=1;endArrow=none;endFill=0;" edge="1" parent="1" source="sAWTyCXMA-xRmHa8fGBv-2" target="sAWTyCXMA-xRmHa8fGBv-4">
          <mxGeometry relative="1" as="geometry" />
        </mxCell>
        <mxCell id="sAWTyCXMA-xRmHa8fGBv-10" value="" style="edgeStyle=orthogonalEdgeStyle;rounded=0;orthogonalLoop=1;jettySize=auto;html=1;startArrow=none;startFill=0;strokeColor=default;curved=1;endArrow=none;endFill=0;" edge="1" parent="1" source="sAWTyCXMA-xRmHa8fGBv-2" target="sAWTyCXMA-xRmHa8fGBv-5">
          <mxGeometry relative="1" as="geometry" />
        </mxCell>
        <mxCell id="sAWTyCXMA-xRmHa8fGBv-11" value="" style="edgeStyle=orthogonalEdgeStyle;rounded=0;orthogonalLoop=1;jettySize=auto;html=1;startArrow=none;startFill=0;strokeColor=default;curved=1;endArrow=none;endFill=0;" edge="1" parent="1" source="sAWTyCXMA-xRmHa8fGBv-2" target="sAWTyCXMA-xRmHa8fGBv-6">
          <mxGeometry relative="1" as="geometry" />
        </mxCell>
        <mxCell id="sAWTyCXMA-xRmHa8fGBv-12" value="" style="edgeStyle=orthogonalEdgeStyle;rounded=0;orthogonalLoop=1;jettySize=auto;html=1;startArrow=none;startFill=0;strokeColor=default;curved=1;endArrow=none;endFill=0;" edge="1" parent="1" source="sAWTyCXMA-xRmHa8fGBv-18" target="sAWTyCXMA-xRmHa8fGBv-1">
          <mxGeometry relative="1" as="geometry" />
        </mxCell>
        <mxCell id="sAWTyCXMA-xRmHa8fGBv-2" value="LIBRO" style="whiteSpace=wrap;html=1;align=center;" vertex="1" parent="1">
          <mxGeometry x="150" y="350" width="100" height="40" as="geometry" />
        </mxCell>
        <mxCell id="sAWTyCXMA-xRmHa8fGBv-13" value="" style="edgeStyle=orthogonalEdgeStyle;rounded=0;orthogonalLoop=1;jettySize=auto;html=1;startArrow=none;startFill=0;strokeColor=default;endArrow=none;endFill=0;" edge="1" parent="1" source="sAWTyCXMA-xRmHa8fGBv-16" target="sAWTyCXMA-xRmHa8fGBv-1">
          <mxGeometry relative="1" as="geometry" />
        </mxCell>
        <mxCell id="sAWTyCXMA-xRmHa8fGBv-14" value="" style="edgeStyle=orthogonalEdgeStyle;rounded=0;orthogonalLoop=1;jettySize=auto;html=1;startArrow=none;startFill=0;strokeColor=default;curved=1;endArrow=none;endFill=0;" edge="1" parent="1" source="sAWTyCXMA-xRmHa8fGBv-3" target="sAWTyCXMA-xRmHa8fGBv-7">
          <mxGeometry relative="1" as="geometry" />
        </mxCell>
        <mxCell id="sAWTyCXMA-xRmHa8fGBv-15" value="" style="edgeStyle=orthogonalEdgeStyle;rounded=0;orthogonalLoop=1;jettySize=auto;html=1;startArrow=none;startFill=0;strokeColor=default;curved=1;endArrow=none;endFill=0;" edge="1" parent="1" source="sAWTyCXMA-xRmHa8fGBv-3" target="sAWTyCXMA-xRmHa8fGBv-8">
          <mxGeometry relative="1" as="geometry" />
        </mxCell>
        <mxCell id="sAWTyCXMA-xRmHa8fGBv-3" value="GENERO" style="whiteSpace=wrap;html=1;align=center;" vertex="1" parent="1">
          <mxGeometry x="560" y="350" width="100" height="40" as="geometry" />
        </mxCell>
        <mxCell id="sAWTyCXMA-xRmHa8fGBv-4" value="&lt;span style=&quot;border-bottom: 1px dotted&quot;&gt;PRECIO&lt;/span&gt;" style="ellipse;whiteSpace=wrap;html=1;align=center;" vertex="1" parent="1">
          <mxGeometry x="150" y="260" width="100" height="40" as="geometry" />
        </mxCell>
        <mxCell id="sAWTyCXMA-xRmHa8fGBv-5" value="&lt;span style=&quot;border-bottom: 1px dotted&quot;&gt;NOMBRE&lt;/span&gt;" style="ellipse;whiteSpace=wrap;html=1;align=center;" vertex="1" parent="1">
          <mxGeometry x="20" y="350" width="100" height="40" as="geometry" />
        </mxCell>
        <mxCell id="sAWTyCXMA-xRmHa8fGBv-6" value="&lt;span style=&quot;border-bottom: 1px dotted&quot;&gt;ID&lt;/span&gt;" style="ellipse;whiteSpace=wrap;html=1;align=center;" vertex="1" parent="1">
          <mxGeometry x="150" y="440" width="100" height="40" as="geometry" />
        </mxCell>
        <mxCell id="sAWTyCXMA-xRmHa8fGBv-7" value="&lt;span style=&quot;border-bottom: 1px dotted&quot;&gt;NOMBRE&lt;/span&gt;" style="ellipse;whiteSpace=wrap;html=1;align=center;" vertex="1" parent="1">
          <mxGeometry x="560" y="260" width="100" height="40" as="geometry" />
        </mxCell>
        <mxCell id="sAWTyCXMA-xRmHa8fGBv-8" value="&lt;span style=&quot;border-bottom: 1px dotted&quot;&gt;ID&lt;/span&gt;" style="ellipse;whiteSpace=wrap;html=1;align=center;" vertex="1" parent="1">
          <mxGeometry x="560" y="440" width="100" height="40" as="geometry" />
        </mxCell>
        <mxCell id="sAWTyCXMA-xRmHa8fGBv-17" value="N:1" style="text;strokeColor=none;fillColor=none;spacingLeft=4;spacingRight=4;overflow=hidden;rotatable=0;points=[[0,0.5],[1,0.5]];portConstraint=eastwest;fontSize=12;whiteSpace=wrap;html=1;" vertex="1" parent="1">
          <mxGeometry x="394" y="300" width="40" height="30" as="geometry" />
        </mxCell>
        <mxCell id="sAWTyCXMA-xRmHa8fGBv-19" value="" style="edgeStyle=orthogonalEdgeStyle;rounded=0;orthogonalLoop=1;jettySize=auto;html=1;startArrow=none;startFill=0;strokeColor=default;curved=1;endArrow=none;endFill=0;" edge="1" parent="1" source="sAWTyCXMA-xRmHa8fGBv-3" target="sAWTyCXMA-xRmHa8fGBv-16">
          <mxGeometry relative="1" as="geometry">
            <mxPoint x="560" y="370" as="sourcePoint" />
            <mxPoint x="470" y="370" as="targetPoint" />
          </mxGeometry>
        </mxCell>
        <mxCell id="sAWTyCXMA-xRmHa8fGBv-16" value="N:1" style="text;strokeColor=none;fillColor=none;spacingLeft=4;spacingRight=4;overflow=hidden;rotatable=0;points=[[0,0.5],[1,0.5]];portConstraint=eastwest;fontSize=12;whiteSpace=wrap;html=1;" vertex="1" parent="1">
          <mxGeometry x="500" y="355" width="40" height="30" as="geometry" />
        </mxCell>
        <mxCell id="sAWTyCXMA-xRmHa8fGBv-20" value="" style="edgeStyle=orthogonalEdgeStyle;rounded=0;orthogonalLoop=1;jettySize=auto;html=1;startArrow=none;startFill=0;strokeColor=default;endArrow=none;endFill=0;" edge="1" parent="1" source="sAWTyCXMA-xRmHa8fGBv-2" target="sAWTyCXMA-xRmHa8fGBv-18">
          <mxGeometry relative="1" as="geometry">
            <mxPoint x="250" y="370" as="sourcePoint" />
            <mxPoint x="350" y="370" as="targetPoint" />
          </mxGeometry>
        </mxCell>
        <mxCell id="sAWTyCXMA-xRmHa8fGBv-18" value="1:1" style="text;strokeColor=none;fillColor=none;spacingLeft=4;spacingRight=4;overflow=hidden;rotatable=0;points=[[0,0.5],[1,0.5]];portConstraint=eastwest;fontSize=12;whiteSpace=wrap;html=1;" vertex="1" parent="1">
          <mxGeometry x="280" y="355" width="40" height="30" as="geometry" />
        </mxCell>
      </root>
    </mxGraphModel>
  </diagram>
  <diagram id="KuwvJIfQKVtguSkfkP6_" name="Ejemplo 2">
    <mxGraphModel dx="650" dy="722" grid="1" gridSize="10" guides="1" tooltips="1" connect="1" arrows="1" fold="1" page="1" pageScale="1" pageWidth="827" pageHeight="1169" math="0" shadow="0">
      <root>
        <mxCell id="0" />
        <mxCell id="1" parent="0" />
        <mxCell id="eBZ52A8FwycD_Okqu3Dv-13" value="" style="edgeStyle=orthogonalEdgeStyle;rounded=0;orthogonalLoop=1;jettySize=auto;html=1;startArrow=none;startFill=0;endArrow=none;endFill=0;curved=1;" edge="1" parent="1" source="eBZ52A8FwycD_Okqu3Dv-1" target="eBZ52A8FwycD_Okqu3Dv-8">
          <mxGeometry relative="1" as="geometry" />
        </mxCell>
        <mxCell id="eBZ52A8FwycD_Okqu3Dv-14" value="" style="edgeStyle=orthogonalEdgeStyle;rounded=0;orthogonalLoop=1;jettySize=auto;html=1;startArrow=none;startFill=0;endArrow=none;endFill=0;curved=1;" edge="1" parent="1" source="eBZ52A8FwycD_Okqu3Dv-1" target="eBZ52A8FwycD_Okqu3Dv-2">
          <mxGeometry relative="1" as="geometry" />
        </mxCell>
        <mxCell id="eBZ52A8FwycD_Okqu3Dv-22" value="" style="edgeStyle=orthogonalEdgeStyle;rounded=0;orthogonalLoop=1;jettySize=auto;html=1;startArrow=none;startFill=0;endArrow=none;endFill=0;curved=1;" edge="1" parent="1" source="eBZ52A8FwycD_Okqu3Dv-1" target="eBZ52A8FwycD_Okqu3Dv-7">
          <mxGeometry relative="1" as="geometry" />
        </mxCell>
        <mxCell id="eBZ52A8FwycD_Okqu3Dv-1" value="COMPRAS" style="rhombus;whiteSpace=wrap;html=1;" vertex="1" parent="1">
          <mxGeometry x="390" y="360" width="80" height="80" as="geometry" />
        </mxCell>
        <mxCell id="eBZ52A8FwycD_Okqu3Dv-15" value="" style="edgeStyle=orthogonalEdgeStyle;rounded=0;orthogonalLoop=1;jettySize=auto;html=1;startArrow=none;startFill=0;endArrow=none;endFill=0;curved=1;" edge="1" parent="1" source="eBZ52A8FwycD_Okqu3Dv-2" target="eBZ52A8FwycD_Okqu3Dv-3">
          <mxGeometry relative="1" as="geometry" />
        </mxCell>
        <mxCell id="eBZ52A8FwycD_Okqu3Dv-16" value="" style="edgeStyle=orthogonalEdgeStyle;rounded=0;orthogonalLoop=1;jettySize=auto;html=1;startArrow=none;startFill=0;endArrow=none;endFill=0;curved=1;" edge="1" parent="1" source="eBZ52A8FwycD_Okqu3Dv-2" target="eBZ52A8FwycD_Okqu3Dv-5">
          <mxGeometry relative="1" as="geometry" />
        </mxCell>
        <mxCell id="eBZ52A8FwycD_Okqu3Dv-18" value="" style="edgeStyle=orthogonalEdgeStyle;rounded=0;orthogonalLoop=1;jettySize=auto;html=1;startArrow=none;startFill=0;endArrow=none;endFill=0;curved=1;" edge="1" parent="1" source="eBZ52A8FwycD_Okqu3Dv-2" target="eBZ52A8FwycD_Okqu3Dv-6">
          <mxGeometry relative="1" as="geometry" />
        </mxCell>
        <mxCell id="eBZ52A8FwycD_Okqu3Dv-2" value="PRODUCTO" style="rounded=0;whiteSpace=wrap;html=1;" vertex="1" parent="1">
          <mxGeometry x="200" y="370" width="120" height="60" as="geometry" />
        </mxCell>
        <mxCell id="eBZ52A8FwycD_Okqu3Dv-3" value="ID" style="ellipse;whiteSpace=wrap;html=1;" vertex="1" parent="1">
          <mxGeometry x="200" y="530" width="120" height="80" as="geometry" />
        </mxCell>
        <mxCell id="eBZ52A8FwycD_Okqu3Dv-4" value="DESCRIPCION" style="ellipse;whiteSpace=wrap;html=1;" vertex="1" parent="1">
          <mxGeometry x="40" y="410" width="120" height="80" as="geometry" />
        </mxCell>
        <mxCell id="eBZ52A8FwycD_Okqu3Dv-5" value="NOMBRE" style="ellipse;whiteSpace=wrap;html=1;" vertex="1" parent="1">
          <mxGeometry x="40" y="300" width="120" height="80" as="geometry" />
        </mxCell>
        <mxCell id="eBZ52A8FwycD_Okqu3Dv-6" value="PRECIO" style="ellipse;whiteSpace=wrap;html=1;" vertex="1" parent="1">
          <mxGeometry x="200" y="200" width="120" height="80" as="geometry" />
        </mxCell>
        <mxCell id="eBZ52A8FwycD_Okqu3Dv-7" value="FECHA" style="ellipse;whiteSpace=wrap;html=1;" vertex="1" parent="1">
          <mxGeometry x="385" y="470" width="90" height="50" as="geometry" />
        </mxCell>
        <mxCell id="eBZ52A8FwycD_Okqu3Dv-19" value="" style="edgeStyle=orthogonalEdgeStyle;rounded=0;orthogonalLoop=1;jettySize=auto;html=1;startArrow=none;startFill=0;endArrow=none;endFill=0;curved=1;" edge="1" parent="1" source="eBZ52A8FwycD_Okqu3Dv-8" target="eBZ52A8FwycD_Okqu3Dv-10">
          <mxGeometry relative="1" as="geometry" />
        </mxCell>
        <mxCell id="eBZ52A8FwycD_Okqu3Dv-20" value="" style="edgeStyle=orthogonalEdgeStyle;rounded=0;orthogonalLoop=1;jettySize=auto;html=1;startArrow=none;startFill=0;endArrow=none;endFill=0;curved=1;" edge="1" parent="1" source="eBZ52A8FwycD_Okqu3Dv-8" target="eBZ52A8FwycD_Okqu3Dv-9">
          <mxGeometry relative="1" as="geometry" />
        </mxCell>
        <mxCell id="eBZ52A8FwycD_Okqu3Dv-21" value="" style="edgeStyle=orthogonalEdgeStyle;rounded=0;orthogonalLoop=1;jettySize=auto;html=1;startArrow=none;startFill=0;endArrow=none;endFill=0;curved=1;" edge="1" parent="1" source="eBZ52A8FwycD_Okqu3Dv-8" target="eBZ52A8FwycD_Okqu3Dv-11">
          <mxGeometry relative="1" as="geometry" />
        </mxCell>
        <mxCell id="eBZ52A8FwycD_Okqu3Dv-8" value="CLIENTE" style="rounded=0;whiteSpace=wrap;html=1;" vertex="1" parent="1">
          <mxGeometry x="560" y="370" width="120" height="60" as="geometry" />
        </mxCell>
        <mxCell id="eBZ52A8FwycD_Okqu3Dv-9" value="CORREO" style="ellipse;whiteSpace=wrap;html=1;" vertex="1" parent="1">
          <mxGeometry x="700" y="360" width="120" height="80" as="geometry" />
        </mxCell>
        <mxCell id="eBZ52A8FwycD_Okqu3Dv-10" value="DIRECCION" style="ellipse;whiteSpace=wrap;html=1;" vertex="1" parent="1">
          <mxGeometry x="570" y="200" width="120" height="80" as="geometry" />
        </mxCell>
        <mxCell id="eBZ52A8FwycD_Okqu3Dv-11" value="ID" style="ellipse;whiteSpace=wrap;html=1;" vertex="1" parent="1">
          <mxGeometry x="630" y="545" width="120" height="80" as="geometry" />
        </mxCell>
        <mxCell id="eBZ52A8FwycD_Okqu3Dv-17" style="edgeStyle=orthogonalEdgeStyle;rounded=0;orthogonalLoop=1;jettySize=auto;html=1;entryX=1.008;entryY=0.625;entryDx=0;entryDy=0;entryPerimeter=0;startArrow=none;startFill=0;endArrow=none;endFill=0;curved=1;" edge="1" parent="1" source="eBZ52A8FwycD_Okqu3Dv-2" target="eBZ52A8FwycD_Okqu3Dv-4">
          <mxGeometry relative="1" as="geometry" />
        </mxCell>
        <mxCell id="eBZ52A8FwycD_Okqu3Dv-25" value="1:1" style="text;strokeColor=none;fillColor=none;html=1;fontSize=24;fontStyle=1;verticalAlign=middle;align=center;" vertex="1" parent="1">
          <mxGeometry x="395" y="330" width="70" height="20" as="geometry" />
        </mxCell>
      </root>
    </mxGraphModel>
  </diagram>
  <diagram id="WJ4k4A7xP_Gygi07k2lT" name="EJERCICIO (UNI)">
    <mxGraphModel dx="650" dy="722" grid="1" gridSize="10" guides="1" tooltips="1" connect="1" arrows="1" fold="1" page="1" pageScale="1" pageWidth="827" pageHeight="1169" math="0" shadow="0">
      <root>
        <mxCell id="0" />
        <mxCell id="1" parent="0" />
        <mxCell id="DigtIg11aaB64see6ij6-27" style="edgeStyle=orthogonalEdgeStyle;rounded=0;orthogonalLoop=1;jettySize=auto;html=1;entryX=0.5;entryY=1;entryDx=0;entryDy=0;endArrow=none;endFill=0;curved=1;" edge="1" parent="1" source="DigtIg11aaB64see6ij6-1" target="DigtIg11aaB64see6ij6-2">
          <mxGeometry relative="1" as="geometry" />
        </mxCell>
        <mxCell id="DigtIg11aaB64see6ij6-29" style="edgeStyle=orthogonalEdgeStyle;rounded=0;orthogonalLoop=1;jettySize=auto;html=1;entryX=0.5;entryY=0;entryDx=0;entryDy=0;endArrow=none;endFill=0;curved=1;" edge="1" parent="1" source="DigtIg11aaB64see6ij6-1" target="DigtIg11aaB64see6ij6-14">
          <mxGeometry relative="1" as="geometry" />
        </mxCell>
        <mxCell id="DigtIg11aaB64see6ij6-30" style="edgeStyle=orthogonalEdgeStyle;rounded=0;orthogonalLoop=1;jettySize=auto;html=1;entryX=1;entryY=0.5;entryDx=0;entryDy=0;endArrow=none;endFill=0;curved=1;" edge="1" parent="1" source="DigtIg11aaB64see6ij6-1" target="DigtIg11aaB64see6ij6-15">
          <mxGeometry relative="1" as="geometry">
            <Array as="points">
              <mxPoint x="330" y="480" />
            </Array>
          </mxGeometry>
        </mxCell>
        <mxCell id="DigtIg11aaB64see6ij6-1" value="CURSOS" style="whiteSpace=wrap;html=1;align=center;" vertex="1" parent="1">
          <mxGeometry x="280" y="410" width="100" height="40" as="geometry" />
        </mxCell>
        <mxCell id="DigtIg11aaB64see6ij6-2" value="INCRITOS" style="shape=rhombus;double=1;perimeter=rhombusPerimeter;whiteSpace=wrap;html=1;align=center;" vertex="1" parent="1">
          <mxGeometry x="110" y="340" width="120" height="60" as="geometry" />
        </mxCell>
        <mxCell id="DigtIg11aaB64see6ij6-3" value="IMPORTE" style="shape=rhombus;double=1;perimeter=rhombusPerimeter;whiteSpace=wrap;html=1;align=center;" vertex="1" parent="1">
          <mxGeometry x="430" y="340" width="120" height="60" as="geometry" />
        </mxCell>
        <mxCell id="DigtIg11aaB64see6ij6-17" value="" style="edgeStyle=orthogonalEdgeStyle;rounded=0;orthogonalLoop=1;jettySize=auto;html=1;endArrow=none;endFill=0;curved=1;" edge="1" parent="1" source="DigtIg11aaB64see6ij6-4" target="DigtIg11aaB64see6ij6-6">
          <mxGeometry relative="1" as="geometry" />
        </mxCell>
        <mxCell id="DigtIg11aaB64see6ij6-18" style="edgeStyle=orthogonalEdgeStyle;rounded=0;orthogonalLoop=1;jettySize=auto;html=1;entryX=0.5;entryY=0;entryDx=0;entryDy=0;endArrow=none;endFill=0;curved=1;" edge="1" parent="1" source="DigtIg11aaB64see6ij6-4" target="DigtIg11aaB64see6ij6-9">
          <mxGeometry relative="1" as="geometry" />
        </mxCell>
        <mxCell id="DigtIg11aaB64see6ij6-19" style="edgeStyle=orthogonalEdgeStyle;rounded=0;orthogonalLoop=1;jettySize=auto;html=1;entryX=0.5;entryY=1;entryDx=0;entryDy=0;endArrow=none;endFill=0;curved=1;" edge="1" parent="1" source="DigtIg11aaB64see6ij6-4" target="DigtIg11aaB64see6ij6-8">
          <mxGeometry relative="1" as="geometry" />
        </mxCell>
        <mxCell id="DigtIg11aaB64see6ij6-20" style="edgeStyle=orthogonalEdgeStyle;rounded=0;orthogonalLoop=1;jettySize=auto;html=1;entryX=0.5;entryY=1;entryDx=0;entryDy=0;endArrow=none;endFill=0;curved=1;" edge="1" parent="1" source="DigtIg11aaB64see6ij6-4" target="DigtIg11aaB64see6ij6-7">
          <mxGeometry relative="1" as="geometry">
            <Array as="points">
              <mxPoint x="270" y="260" />
            </Array>
          </mxGeometry>
        </mxCell>
        <mxCell id="DigtIg11aaB64see6ij6-26" value="" style="edgeStyle=orthogonalEdgeStyle;rounded=0;orthogonalLoop=1;jettySize=auto;html=1;endArrow=none;endFill=0;curved=1;" edge="1" parent="1" source="DigtIg11aaB64see6ij6-4" target="DigtIg11aaB64see6ij6-2">
          <mxGeometry relative="1" as="geometry" />
        </mxCell>
        <mxCell id="DigtIg11aaB64see6ij6-4" value="ALUMNOS" style="whiteSpace=wrap;html=1;align=center;" vertex="1" parent="1">
          <mxGeometry x="120" y="240" width="100" height="40" as="geometry" />
        </mxCell>
        <mxCell id="DigtIg11aaB64see6ij6-21" value="" style="edgeStyle=orthogonalEdgeStyle;rounded=0;orthogonalLoop=1;jettySize=auto;html=1;endArrow=none;endFill=0;curved=1;" edge="1" parent="1" source="DigtIg11aaB64see6ij6-5" target="DigtIg11aaB64see6ij6-10">
          <mxGeometry relative="1" as="geometry" />
        </mxCell>
        <mxCell id="DigtIg11aaB64see6ij6-22" style="edgeStyle=orthogonalEdgeStyle;rounded=0;orthogonalLoop=1;jettySize=auto;html=1;entryX=0.5;entryY=1;entryDx=0;entryDy=0;endArrow=none;endFill=0;curved=1;" edge="1" parent="1" source="DigtIg11aaB64see6ij6-5" target="DigtIg11aaB64see6ij6-11">
          <mxGeometry relative="1" as="geometry" />
        </mxCell>
        <mxCell id="DigtIg11aaB64see6ij6-24" style="edgeStyle=orthogonalEdgeStyle;rounded=0;orthogonalLoop=1;jettySize=auto;html=1;entryX=0.5;entryY=0;entryDx=0;entryDy=0;endArrow=none;endFill=0;curved=1;" edge="1" parent="1" source="DigtIg11aaB64see6ij6-5" target="DigtIg11aaB64see6ij6-13">
          <mxGeometry relative="1" as="geometry" />
        </mxCell>
        <mxCell id="DigtIg11aaB64see6ij6-5" value="PROFESOR" style="whiteSpace=wrap;html=1;align=center;" vertex="1" parent="1">
          <mxGeometry x="440" y="240" width="100" height="40" as="geometry" />
        </mxCell>
        <mxCell id="DigtIg11aaB64see6ij6-6" value="ID" style="ellipse;whiteSpace=wrap;html=1;align=center;" vertex="1" parent="1">
          <mxGeometry x="120" y="150" width="100" height="40" as="geometry" />
        </mxCell>
        <mxCell id="DigtIg11aaB64see6ij6-7" value="&lt;span style=&quot;border-bottom: 1px dotted&quot;&gt;NOMBRE&lt;/span&gt;" style="ellipse;whiteSpace=wrap;html=1;align=center;" vertex="1" parent="1">
          <mxGeometry x="220" y="200" width="100" height="40" as="geometry" />
        </mxCell>
        <mxCell id="DigtIg11aaB64see6ij6-8" value="&lt;span style=&quot;border-bottom: 1px dotted&quot;&gt;DIRECCION&lt;/span&gt;" style="ellipse;whiteSpace=wrap;html=1;align=center;" vertex="1" parent="1">
          <mxGeometry x="10" y="200" width="100" height="40" as="geometry" />
        </mxCell>
        <mxCell id="DigtIg11aaB64see6ij6-9" value="&lt;span style=&quot;border-bottom: 1px dotted&quot;&gt;FEHCA DE NACIMIENTO&lt;/span&gt;" style="ellipse;whiteSpace=wrap;html=1;align=center;" vertex="1" parent="1">
          <mxGeometry x="10" y="280" width="100" height="40" as="geometry" />
        </mxCell>
        <mxCell id="DigtIg11aaB64see6ij6-10" value="&lt;span style=&quot;border-bottom: 1px dotted&quot;&gt;ID&lt;/span&gt;" style="ellipse;whiteSpace=wrap;html=1;align=center;" vertex="1" parent="1">
          <mxGeometry x="440" y="150" width="100" height="40" as="geometry" />
        </mxCell>
        <mxCell id="DigtIg11aaB64see6ij6-11" value="&lt;span style=&quot;border-bottom: 1px dotted&quot;&gt;NOMBRE&lt;/span&gt;" style="ellipse;whiteSpace=wrap;html=1;align=center;" vertex="1" parent="1">
          <mxGeometry x="330" y="200" width="100" height="40" as="geometry" />
        </mxCell>
        <mxCell id="DigtIg11aaB64see6ij6-12" value="&lt;span style=&quot;border-bottom: 1px dotted&quot;&gt;ESPECIALIZACION&lt;/span&gt;" style="ellipse;whiteSpace=wrap;html=1;align=center;" vertex="1" parent="1">
          <mxGeometry x="540" y="190" width="120" height="40" as="geometry" />
        </mxCell>
        <mxCell id="DigtIg11aaB64see6ij6-13" value="&lt;span style=&quot;border-bottom: 1px dotted&quot;&gt;CONTACTO&lt;/span&gt;" style="ellipse;whiteSpace=wrap;html=1;align=center;" vertex="1" parent="1">
          <mxGeometry x="560" y="280" width="100" height="40" as="geometry" />
        </mxCell>
        <mxCell id="DigtIg11aaB64see6ij6-14" value="&lt;span style=&quot;border-bottom: 1px dotted&quot;&gt;ID&lt;/span&gt;" style="ellipse;whiteSpace=wrap;html=1;align=center;" vertex="1" parent="1">
          <mxGeometry x="280" y="530" width="100" height="40" as="geometry" />
        </mxCell>
        <mxCell id="DigtIg11aaB64see6ij6-15" value="&lt;span style=&quot;border-bottom: 1px dotted&quot;&gt;NOMBRE&lt;/span&gt;" style="ellipse;whiteSpace=wrap;html=1;align=center;" vertex="1" parent="1">
          <mxGeometry x="160" y="460" width="100" height="40" as="geometry" />
        </mxCell>
        <mxCell id="DigtIg11aaB64see6ij6-16" value="&lt;span style=&quot;border-bottom: 1px dotted&quot;&gt;CREDITOS ASOCIADOS&lt;/span&gt;" style="ellipse;whiteSpace=wrap;html=1;align=center;" vertex="1" parent="1">
          <mxGeometry x="400" y="460" width="100" height="40" as="geometry" />
        </mxCell>
        <mxCell id="DigtIg11aaB64see6ij6-23" style="edgeStyle=orthogonalEdgeStyle;rounded=0;orthogonalLoop=1;jettySize=auto;html=1;entryX=0.558;entryY=1.05;entryDx=0;entryDy=0;entryPerimeter=0;endArrow=none;endFill=0;curved=1;" edge="1" parent="1" source="DigtIg11aaB64see6ij6-5" target="DigtIg11aaB64see6ij6-12">
          <mxGeometry relative="1" as="geometry">
            <Array as="points">
              <mxPoint x="607" y="260" />
            </Array>
          </mxGeometry>
        </mxCell>
        <mxCell id="DigtIg11aaB64see6ij6-25" style="edgeStyle=orthogonalEdgeStyle;rounded=0;orthogonalLoop=1;jettySize=auto;html=1;endArrow=none;endFill=0;curved=1;" edge="1" parent="1" source="DigtIg11aaB64see6ij6-5">
          <mxGeometry relative="1" as="geometry">
            <mxPoint x="490" y="342" as="targetPoint" />
            <Array as="points">
              <mxPoint x="490" y="342" />
            </Array>
          </mxGeometry>
        </mxCell>
        <mxCell id="DigtIg11aaB64see6ij6-28" style="edgeStyle=orthogonalEdgeStyle;rounded=0;orthogonalLoop=1;jettySize=auto;html=1;startArrow=none;startFill=0;endArrow=none;endFill=0;curved=1;" edge="1" parent="1" source="DigtIg11aaB64see6ij6-1">
          <mxGeometry relative="1" as="geometry">
            <mxPoint x="490" y="400" as="targetPoint" />
            <Array as="points">
              <mxPoint x="490" y="430" />
              <mxPoint x="490" y="402" />
            </Array>
          </mxGeometry>
        </mxCell>
        <mxCell id="DigtIg11aaB64see6ij6-31" style="edgeStyle=orthogonalEdgeStyle;rounded=0;orthogonalLoop=1;jettySize=auto;html=1;curved=1;endArrow=none;endFill=0;" edge="1" parent="1" source="DigtIg11aaB64see6ij6-1">
          <mxGeometry relative="1" as="geometry">
            <mxPoint x="401" y="480" as="targetPoint" />
            <Array as="points">
              <mxPoint x="330" y="480" />
              <mxPoint x="401" y="480" />
            </Array>
          </mxGeometry>
        </mxCell>
      </root>
    </mxGraphModel>
  </diagram>
</mxfile>
